<svg xmlns="http://www.w3.org/2000/svg" viewBox="0 0 64 64">
  <rect width="64" height="64" rx="12" fill="#185FA5"/>
  <path d="M14 32 C14 20 22 12 30 12 C38 12 35 22 32 32 C29 42 32 52 40 52 C48 52 50 44 50 32 C50 20 42 12 34 12 C26 12 29 22 32 32 C35 42 38 52 30 52 C22 52 14 44 14 32 Z" fill="none" stroke="white" stroke-width="3.5" stroke-linecap="round"/>
  <path d="M27 27 C29.5 29.5 32 32 34.5 34.5" fill="none" stroke="#BA7517" stroke-width="5" stroke-linecap="round"/>
  <path d="M34.5 29.5 C32 32 29.5 34.5 27 37" fill="none" stroke="#BA7517" stroke-width="5" stroke-linecap="round"/>
</svg>
